<svg width="690" height="403" viewBox="0 0 690 403" fill="none" xmlns="http://www.w3.org/2000/svg">
<ellipse cx="271.523" cy="167.485" rx="5.97449" ry="6.6174" transform="rotate(-44.6939 271.523 167.485)" fill="white"/>
<path d="M76.5217 47.4944C59.5703 17.292 59.6502 -20.3088 61.8092 -35.3339L417.595 -185.408C444.589 -168.579 479.724 -81.2273 493.917 -39.6552C469.041 -70.8969 416.816 -132.221 406.92 -127.587C397.024 -122.952 459.428 -57.0895 491.867 -24.7378C496.066 -10.5612 498.698 52.521 499.49 82.29C479.476 55.3087 437.437 2.18916 429.396 5.56207C421.355 8.93501 471.283 65.324 497.252 93.0969L487.669 159.863C465.274 133.089 418.909 77.9489 412.608 71.5802C404.731 63.6194 404.078 64.2658 397.45 68.6751C390.822 73.0844 487.812 170.463 486.661 175.181C485.741 178.956 474.098 214.105 468.392 231.207C444.446 202.865 394.954 147.048 388.556 150.513C382.158 153.979 439.365 211.234 468.768 239.429L454.759 284.079C439.95 263.883 408.174 225.624 399.549 234.157C390.924 242.69 427.099 276.596 446.265 292.483C442.498 311.676 413.743 355.449 399.837 374.937C392.429 374.246 339.217 346.12 313.537 332.144C320.3 308.268 331.348 260.102 321.438 258.449C311.528 256.797 307.745 302.548 307.093 325.63C301.193 328.031 262.246 290.757 243.51 271.819C262.426 247.376 297.823 196.028 288.085 186.186C278.348 176.343 250.325 231.66 237.531 260.549C231.295 261.564 201.518 227.198 187.41 209.889C214.296 178.037 265.616 111.461 255.803 99.9746C245.99 88.4879 200.868 163.157 179.534 201.928L126.513 132.655C150.553 105.767 196.687 49.7638 188.904 40.8516C181.121 31.9393 138.691 90.2926 118.449 120.583L80.7729 58.3257L148.32 -17.8119C148.781 -20.1775 147.421 -25.5158 138.295 -27.9439C129.17 -30.3721 93.3105 21.3366 76.5217 47.4944Z" fill="#95AB4E"/>
<path d="M498.167 23.4501L291.329 -131.374" stroke="#13530D" stroke-width="2"/>
<path d="M398.794 374.536L363.455 266.286L320.984 136.451M320.984 136.451L461.848 259.879M320.984 136.451L289.149 37.624M289.149 37.624L478.623 201.035M289.149 37.624L259.58 -86.3583M259.58 -86.3583L493.183 123.617M259.58 -86.3583L255.106 -117.018" stroke="#13530D" stroke-width="2"/>
<path d="M330.001 161.901L278.407 303.171" stroke="#13530D" stroke-width="2"/>
<path d="M307.108 94.3279L207.459 230.153" stroke="#13530D" stroke-width="2"/>
<path d="M282.218 12.9754L151.452 164.397" stroke="#13530D" stroke-width="2"/>
<path d="M260.623 -85.9577L97.6956 89.1527" stroke="#13530D" stroke-width="2"/>
</svg>
