<svg width="669" height="399" viewBox="0 0 669 399" fill="none" xmlns="http://www.w3.org/2000/svg">
<ellipse cx="207.891" cy="113.419" rx="6.6683" ry="7.38588" transform="rotate(-19.7247 207.891 113.419)" fill="white"/>
<path d="M67.1203 -99.8648C64.1986 -138.411 81.9952 -176.418 91.2588 -190.603L521.954 -174.82C541.338 -145.074 535.732 -40.137 530.505 8.61309C520.056 -34.7178 496.107 -121.373 483.91 -121.345C471.714 -121.318 503.824 -25.2766 521.403 22.7408C518.972 39.0633 491.915 104.131 478.69 134.624C471.151 97.8946 453.644 24.3412 443.918 23.9653C434.193 23.5894 458.143 104.168 471.334 144.504L430.18 207.544C420.135 169.902 399.202 92.2659 395.827 82.8533C391.675 71.2729 390.674 71.4258 382.269 72.7098L381.859 72.7723C373.076 74.1109 425.331 218.336 421.944 222.568C419.234 225.954 390.893 256.033 377.062 270.649C366.186 230.69 342.408 150.894 334.302 151.386C326.195 151.879 357.102 236.763 373.569 279.144L338.357 317.721C332.888 290.309 318.764 236.627 306.016 241.197C293.269 245.768 313.896 297.118 325.803 322.222C312.949 339.868 263.231 370.61 239.978 383.776C232.809 379.586 192.22 326.057 172.821 299.817C190.913 278.845 224.785 235.316 215.537 228.974C206.288 222.633 180.905 267.143 169.37 290.19C162.269 289.839 140.424 233.775 130.389 205.786C161.045 189.967 221.053 154.69 215.838 140.144C210.622 125.597 156.206 168.364 129.65 191.566C122.862 189.654 108.925 140.854 102.805 116.693C145.017 97.1323 228.31 53.9501 223.793 37.7042C219.276 21.4584 138.44 75.7503 98.587 104.927L77.5781 9.85462C114.57 -6.02392 187.636 -40.9521 183.96 -53.6367C180.284 -66.3212 109.859 -27.27 75.1062 -6.15875L66.3185 -86.9026L170.535 -132.115C172.117 -134.291 173.256 -140.333 165.167 -147.089C157.077 -153.846 96.4317 -118.421 67.1203 -99.8648Z" fill="#458C43"/>
<path d="M505.074 74.4661L368.739 -179.639" stroke="#13530D" stroke-width="2"/>
<path d="M239.112 382.879L254.358 256.701L272.558 105.322M272.558 105.322L356.932 296.576M272.558 105.322L286.91 -9.67137M286.91 -9.67137L401.629 244.941M286.91 -9.67137L315.406 -149.05M315.406 -149.05L452.837 173.468M315.406 -149.05L325.324 -182.18" stroke="#13530D" stroke-width="2"/>
<path d="M269.69 135.321L150.927 253.95" stroke="#13530D" stroke-width="2"/>
<path d="M278.364 56.163L113.543 146.642" stroke="#13530D" stroke-width="2"/>
<path d="M291.51 -37.8769L87.8569 53.7221" stroke="#13530D" stroke-width="2"/>
</svg>
