<svg width="603" height="845" viewBox="0 0 603 845" fill="none" xmlns="http://www.w3.org/2000/svg">
<ellipse cx="282.078" cy="511.328" rx="7.83363" ry="8.6766" transform="rotate(-128.339 282.078 511.328)" fill="white"/>
<ellipse cx="21.8773" cy="408.272" rx="7.83363" ry="8.6766" transform="rotate(-128.339 21.8773 408.272)" fill="white"/>
<path d="M97.4163 748.026C55.5988 765.733 6.61187 760.172 -12.6544 755.178L-156.588 269.767C-130.74 237.032 -11.8112 203.924 44.4221 191.462C0.100359 219.344 -87.3921 278.501 -82.7883 292.069C-78.1845 305.637 16.698 233.875 63.5638 196.298C82.6471 192.883 165.233 198.607 204.141 201.896C166.076 224.061 90.7541 271.134 93.9826 282.102C97.211 293.07 177.938 236.191 217.899 206.381L303.513 228.558C265.373 253.856 186.79 306.273 177.576 313.56C166.241 322.525 166.786 323.582 171.368 332.458L171.591 332.891C176.375 342.168 317.346 229.91 323.327 232.093C328.113 233.84 372.227 254.113 393.686 264.031C353.277 291.123 273.358 347.517 276.945 356.358C280.533 365.198 363.445 298.959 404.453 264.735L460.605 289.469C432.138 305.837 377.67 341.692 387.539 354.17C397.407 366.648 446.84 324.427 470.324 301.758C494.789 309.452 547.658 353.275 571.034 374.225C569.058 383.778 524.685 449.038 502.746 480.474C472.613 468.197 411.451 446.81 407.859 459.484C404.268 472.158 463.338 483.727 493.323 487.927C495.595 495.964 441.369 541.307 413.973 562.974C384.865 534.777 323.09 481.198 308.851 492.459C294.612 503.721 362.63 548.265 398.418 569.129C398.836 577.404 349.732 611.219 325.128 627.092C287.523 587.433 208.215 510.895 191.822 522.016C175.429 533.137 266.185 602.773 313.611 636.2L215.645 695.24C184.096 660.011 117.812 591.765 105.069 600.614C92.3256 609.463 162.21 673.223 198.745 703.997L112.148 744.058L22.7334 644.987C19.7177 644.043 12.564 645.04 8.07545 656.58C3.58693 668.12 65.7658 722.352 97.4163 748.026Z" fill="#0A4609"/>
<path d="M127.273 195.081L-104.499 442.148" stroke="#082D04" stroke-width="2"/>
<path d="M570.361 375.526L424.169 405.867L248.815 442.371M248.815 442.371L430.099 276.719M248.815 442.371L115.411 469.513M115.411 469.513L355.852 246.32M115.411 469.513L-50.4449 490.053M-50.4449 490.053L257.079 216.112M-50.4449 490.053L-91.0482 491.435" stroke="#082D04" stroke-width="2"/>
<path d="M283.288 434.314L459.892 522.048" stroke="#082D04" stroke-width="2"/>
<path d="M191.909 454.341L354.444 603.907" stroke="#082D04" stroke-width="2"/>
<path d="M82.2846 474.969L260.629 667.347" stroke="#082D04" stroke-width="2"/>
<path d="M-49.7716 488.752L154.775 726.479" stroke="#082D04" stroke-width="2"/>
</svg>
