<svg width="616" height="814" viewBox="0 0 616 814" fill="none" xmlns="http://www.w3.org/2000/svg">
<path d="M96 324.5L0 815L508 848.5C514.667 797.833 532.6 670.2 551 565C569.4 459.8 568.667 387.167 566 364C580.5 344.333 610.6 301.7 615 288.5C619.4 275.3 584.167 201.333 566 166C623 148 617.711 96 613.5 80C611.337 71.7799 588 25 528 35C480 43 464.333 83 462.5 102C386.9 68.8 277.333 80.8333 232 91C240.5 70.1667 245.8 24.3 199 7.49999C152.2 -9.30001 116.167 9.49999 104 21C95.5 28.6667 79.7 51.8 84.5 83C89.3 114.2 122.833 129.667 139 133.5C103 166.7 78 217.667 70 239C65.6 261.4 85.5 305.333 96 324.5Z" fill="#9DC839"/>
<path d="M572.501 355C553.301 328.2 243.667 316.5 92.5005 312.5V328.5L87.5005 360C82.5005 432.5 568 433.5 568 406C568 386.209 567.667 369 567.001 364.5L572.501 355Z" fill="#D3D375"/>
<ellipse cx="320" cy="162.5" rx="7" ry="20.5" fill="#3C5F32"/>
<ellipse cx="367" cy="162.5" rx="7" ry="20.5" fill="#3C5F32"/>
<path d="M82 242.402C172.031 231.63 397.945 216.451 603 285" stroke="#3C5F32" stroke-width="20" stroke-linecap="round"/>
<path d="M82 242.402C172.031 231.63 397.945 216.451 603 285" stroke="black" stroke-opacity="0.2" stroke-width="20" stroke-linecap="round"/>
<path d="M298 593.5C329 549 357.5 456.5 363.5 409C372.5 416.5 367 464 350.5 507C337.3 541.4 310 579 298 593.5Z" fill="#304C28"/>
<ellipse cx="88.4991" cy="740.308" rx="14.5" ry="56.5" transform="rotate(-15.9856 88.4991 740.308)" fill="#E27018"/>
<ellipse cx="461.447" cy="775.506" rx="14.5" ry="56.5" transform="rotate(32.299 461.447 775.506)" fill="#E27018"/>
<ellipse cx="132.904" cy="711.264" rx="18.0849" ry="63.9605" transform="rotate(-26.7108 132.904 711.264)" fill="#E27018"/>
<ellipse cx="438.26" cy="737.051" rx="18.0849" ry="63.9605" transform="rotate(40.0276 438.26 737.051)" fill="#E27018"/>
<ellipse cx="169" cy="662.629" rx="17.6079" ry="45.0982" transform="rotate(-63.9838 169 662.629)" fill="#E27018"/>
<path d="M317.5 587C314.167 588.667 304.8 598.2 294 623C296.833 625.167 305.5 621 317.5 587Z" fill="#304C28"/>
<path d="M318 607C315.163 608.142 307.191 614.677 298 631.675C300.411 633.161 307.787 630.305 318 607Z" fill="#304C28"/>
<ellipse cx="413.454" cy="677.673" rx="17.6079" ry="40.6769" transform="rotate(49.8899 413.454 677.673)" fill="#E27018"/>
<ellipse cx="42.6544" cy="735.194" rx="10.9068" ry="35.8898" transform="rotate(9.45505 42.6544 735.194)" fill="#E27018"/>
<ellipse cx="498.654" cy="794.194" rx="10.9068" ry="35.8898" transform="rotate(9.45505 498.654 794.194)" fill="#E27018"/>
</svg>
