<svg width="616" height="762" viewBox="0 0 616 762" fill="none" xmlns="http://www.w3.org/2000/svg">
<path d="M96 323.682L0 814.182L508 847.682C514.667 797.016 532.6 669.382 551 564.182C569.4 458.982 568.667 386.349 566 363.182C580.5 343.516 610.6 300.882 615 287.682C619.4 274.482 584.167 200.516 566 165.182C623 147.182 617.711 95.1823 613.5 79.1823C611.337 70.9622 588 24.1823 528 34.1823C480 42.1823 464.333 82.1823 462.5 101.182C386.9 67.9823 277.333 80.0156 232 90.1823C240.5 69.3489 245.8 23.4823 199 6.68227C152.2 -10.1177 116.167 8.68227 104 20.1823C95.5 27.8489 79.7 50.9823 84.5 82.1823C89.3 113.382 122.833 128.849 139 132.682C103 165.882 78 216.849 70 238.182C65.6 260.582 85.5 304.516 96 323.682Z" fill="#9DC839"/>
<path d="M572.5 354.182C553.3 327.382 243.667 315.682 92.5002 311.682V327.682L87.5002 359.182C82.5002 431.682 567.999 432.682 568 405.182C568 385.391 567.667 368.182 567 363.682L572.5 354.182Z" fill="#D3D375"/>
<ellipse cx="320" cy="161.682" rx="7" ry="20.5" fill="#3C5F32"/>
<ellipse cx="367" cy="161.682" rx="7" ry="20.5" fill="#3C5F32"/>
<path d="M122.5 205.182C282 292.682 350 288.182 569 239.182" stroke="#3C5F32" stroke-width="20" stroke-linecap="round"/>
<path d="M122.5 205.182C282 292.682 350 288.182 569 239.182" stroke="black" stroke-opacity="0.2" stroke-width="20" stroke-linecap="round"/>
<path d="M298 592.682C329 548.182 357.5 455.682 363.5 408.182C372.5 415.682 367 463.182 350.5 506.182C337.3 540.582 310 578.182 298 592.682Z" fill="#304C28"/>
<ellipse cx="88.4991" cy="739.491" rx="14.5" ry="56.5" transform="rotate(-15.9856 88.4991 739.491)" fill="#E27018"/>
<ellipse cx="461.446" cy="774.688" rx="14.5" ry="56.5" transform="rotate(32.299 461.446 774.688)" fill="#E27018"/>
<ellipse cx="132.904" cy="710.446" rx="18.0849" ry="63.9605" transform="rotate(-26.7108 132.904 710.446)" fill="#E27018"/>
<ellipse cx="438.26" cy="736.233" rx="18.0849" ry="63.9605" transform="rotate(40.0276 438.26 736.233)" fill="#E27018"/>
<ellipse cx="169" cy="661.811" rx="17.6079" ry="45.0982" transform="rotate(-63.9838 169 661.811)" fill="#E27018"/>
<path d="M317.5 586.182C314.167 587.849 304.8 597.382 294 622.182C296.833 624.349 305.5 620.182 317.5 586.182Z" fill="#304C28"/>
<path d="M318 606.182C315.163 607.325 307.191 613.859 298 630.858C300.411 632.343 307.787 629.487 318 606.182Z" fill="#304C28"/>
<ellipse cx="413.454" cy="676.855" rx="17.6079" ry="40.6769" transform="rotate(49.8899 413.454 676.855)" fill="#E27018"/>
<ellipse cx="42.6539" cy="734.376" rx="10.9068" ry="35.8898" transform="rotate(9.45505 42.6539 734.376)" fill="#E27018"/>
<ellipse cx="498.654" cy="793.376" rx="10.9068" ry="35.8898" transform="rotate(9.45505 498.654 793.376)" fill="#E27018"/>
<path d="M219 64.6823C219 94.7818 201.1 77.1823 171 77.1823C140.9 77.1823 110 94.7818 110 64.6823C110 34.5828 134.4 10.1823 164.5 10.1823C194.6 10.1823 219 34.5828 219 64.6823Z" fill="#E27018"/>
<path d="M603 96.6823C603 126.782 578.6 106.682 548.5 106.682C518.4 106.682 494 126.782 494 96.6823C494 66.5828 518.4 42.1823 548.5 42.1823C578.6 42.1823 603 66.5828 603 96.6823Z" fill="#E27018"/>
<ellipse cx="169.5" cy="58.6823" rx="18.5" ry="17.5" fill="#2D2D2D"/>
<ellipse cx="553.5" cy="84.1823" rx="20.5" ry="21" fill="#2D2D2D"/>
</svg>
