<svg width="217" height="168" viewBox="0 0 217 168" fill="none" xmlns="http://www.w3.org/2000/svg">
<path d="M132 19.5C115.5 6.00002 72.2 -10.1 31 33.5C47.6667 44.3334 91.2 56.7 132 19.5Z" fill="#065432"/>
<path d="M172.5 80.5C166.5 54.9 179.667 16.1667 187 0H210C221.2 30.8 189.667 66.5 172.5 80.5Z" fill="#065432"/>
<path d="M126.5 125C110.9 105.8 108.667 64.6667 109.5 46.5L120.5 33.5C127.833 39.3333 142.4 54.8 142 70C141.6 85.2 131.5 113 126.5 125Z" fill="#065432"/>
<path d="M68.5 75C66 97.5 49.7 146.7 4.5 163.5C6.5 143.5 22.1 97.8 68.5 75Z" fill="#065432"/>
<path d="M68.5 75C66 97.5 49.7 146.7 4.5 163.5C6.5 143.5 22.1 97.8 68.5 75ZM68.5 75C86.9 54.6 160 5.5 187 -11M132 19.5C115.5 6.00002 72.2 -10.1 31 33.5C47.6667 44.3334 91.2 56.7 132 19.5ZM187 0C179.667 16.1667 166.5 54.9 172.5 80.5C189.667 66.5 221.2 30.8 210 0H187ZM109.5 46.5C108.667 64.6667 110.9 105.8 126.5 125C131.5 113 141.6 85.2 142 70C142.4 54.8 127.833 39.3333 120.5 33.5L109.5 46.5Z" stroke="#065432" stroke-width="8" stroke-linecap="round" stroke-linejoin="round"/>
</svg>
