<svg width="424" height="377" viewBox="0 0 424 377" fill="none" xmlns="http://www.w3.org/2000/svg">
<circle cx="188.5" cy="192.5" r="6.5" fill="white"/>
<circle cx="155" cy="126" r="4" fill="white"/>
<path d="M264 37C170 57 45.8333 187 -4.5 249.5V357L264 37Z" fill="#19483E"/>
<path d="M303.5 21L1.5 375.5C273.5 393.9 396.167 131.167 423.5 -2.5H354.5L303.5 21Z" fill="#19483E"/>
<path d="M397.5 95.5L289 115" stroke="#0A1013" stroke-width="5" stroke-linecap="round" stroke-linejoin="round"/>
<path d="M167.669 84L180.334 111.007" stroke="#0A1013" stroke-width="5" stroke-linecap="round" stroke-linejoin="round"/>
<path d="M129.669 111L142.334 138.007" stroke="#0A1013" stroke-width="5" stroke-linecap="round" stroke-linejoin="round"/>
<path d="M87.669 149L100.334 176.007" stroke="#0A1013" stroke-width="5" stroke-linecap="round" stroke-linejoin="round"/>
<path d="M51.669 183L64.3341 210.007" stroke="#0A1013" stroke-width="5" stroke-linecap="round" stroke-linejoin="round"/>
<path d="M15.669 219L28.3341 246.007" stroke="#0A1013" stroke-width="5" stroke-linecap="round" stroke-linejoin="round"/>
<path d="M378.5 151L270 170.5" stroke="#0A1013" stroke-width="5" stroke-linecap="round" stroke-linejoin="round"/>
<path d="M343.5 221L235 240.5" stroke="#0A1013" stroke-width="5" stroke-linecap="round" stroke-linejoin="round"/>
<path d="M270 285L180 301" stroke="#0A1013" stroke-width="5" stroke-linecap="round" stroke-linejoin="round"/>
</svg>
