<svg width="397" height="345" viewBox="0 0 397 345" fill="none" xmlns="http://www.w3.org/2000/svg">
<path d="M246.5 0C134.1 46.8 29.6667 184.167 -8.5 247L-1 344.5H396.5C384.1 152.9 291.333 35 246.5 0Z" fill="#91AC3C"/>
<path d="M207 213.5L334 133.5M207 213.5L189.5 293M207 213.5L246.5 5.5M189.5 293L368 219M189.5 293L129 81.5M189.5 293L171 372.5M171 372.5L392 307M171 372.5L72 137.5M171 372.5L83 379.5L23.5 196" stroke="#053E0E" stroke-width="2" stroke-linecap="round"/>
<path d="M105 106.5L138 217.5" stroke="#03340E" stroke-width="10" stroke-linecap="round"/>
<path d="M47 177L80 288" stroke="#03340E" stroke-width="10" stroke-linecap="round"/>
<path d="M0 248L33 359" stroke="#03340E" stroke-width="10" stroke-linecap="round"/>
<path d="M161 61L194 172" stroke="#03340E" stroke-width="10" stroke-linecap="round"/>
<path d="M310.625 84.9714L247.113 133.852" stroke="#03340E" stroke-width="10" stroke-linecap="round"/>
<path d="M355 177L251 223" stroke="#03340E" stroke-width="10" stroke-linecap="round"/>
<path d="M377 266L259.555 311" stroke="#03340E" stroke-width="10" stroke-linecap="round"/>
</svg>
