<svg width="34" height="27" viewBox="0 0 34 27" fill="none" xmlns="http://www.w3.org/2000/svg">
<ellipse cx="12.7335" cy="14.6908" rx="2.69307" ry="9.76238" transform="rotate(-18.5866 12.7335 14.6908)" fill="#00FF47"/>
<path d="M21.2447 15.6778C20.4215 20.7562 18.2999 24.0053 16.8317 23.7673C15.3635 23.5293 15.1048 19.8944 15.928 14.8159C16.7512 9.7375 18.6088 5.81355 20.077 6.05155C21.5452 6.28954 22.068 10.5994 21.2447 15.6778Z" fill="#00FF47"/>
<ellipse cx="24.2277" cy="16.431" rx="2.69307" ry="9.76238" transform="rotate(40.682 24.2277 16.431)" fill="#00FF47"/>
<ellipse cx="9.96128" cy="20.263" rx="2.69307" ry="6.75205" transform="rotate(-69.2401 9.96128 20.263)" fill="#00FF47"/>
<circle cx="3.53465" cy="18.2129" r="3.53465" fill="#E27018"/>
<circle cx="9.59407" cy="5.75743" r="3.53465" fill="#E27018"/>
<circle cx="20.703" cy="4.4109" r="3.53465" fill="#E27018"/>
<circle cx="30.4654" cy="7.4406" r="3.53465" fill="#E27018"/>
<circle cx="16.8317" cy="20.7376" r="5.38614" fill="#00FF47"/>
</svg>
