<svg width="1893" height="1079" viewBox="0 0 1893 1079" fill="none" xmlns="http://www.w3.org/2000/svg">
<circle cx="838.274" cy="713.689" r="4.29245" fill="white"/>
<circle cx="270.348" cy="443.594" r="4.29245" fill="white"/>
<circle cx="435.112" cy="486.849" r="2.64151" fill="white"/>
<circle cx="524.924" cy="481.566" r="2.64151" fill="white"/>
<circle cx="496.528" cy="395.057" r="2.64151" fill="white"/>
<circle cx="583.037" cy="620.906" r="2.64151" fill="white"/>
<circle cx="905.302" cy="424.774" r="2.64151" fill="white"/>
<circle cx="867.66" cy="591.849" r="2.64151" fill="white"/>
<circle cx="584.688" cy="452.179" r="4.29245" fill="white"/>
<circle cx="650.065" cy="547.934" r="4.29245" fill="white"/>
<circle cx="782.801" cy="478.594" r="4.29245" fill="white"/>
<circle cx="1058.18" cy="495.764" r="4.29245" fill="white"/>
<circle cx="239.971" cy="613.972" r="4.29245" fill="white"/>
<circle cx="407.707" cy="613.972" r="4.29245" fill="white"/>
<circle cx="407.707" cy="386.142" r="4.29245" fill="white"/>
<circle cx="838.274" cy="713.689" r="4.29245" fill="white"/>
<circle cx="131.67" cy="357.745" r="4.29245" fill="white"/>
<circle cx="296.434" cy="401" r="2.64151" fill="white"/>
<circle cx="386.246" cy="395.717" r="2.64151" fill="white"/>
<circle cx="357.85" cy="309.208" r="2.64151" fill="white"/>
<circle cx="444.358" cy="535.057" r="2.64151" fill="white"/>
<circle cx="766.623" cy="338.925" r="2.64151" fill="white"/>
<circle cx="728.981" cy="506" r="2.64151" fill="white"/>
<circle cx="446.009" cy="366.33" r="4.29245" fill="white"/>
<circle cx="511.387" cy="462.085" r="4.29245" fill="white"/>
<circle cx="644.123" cy="392.745" r="4.29245" fill="white"/>
<circle cx="919.5" cy="409.915" r="4.29245" fill="white"/>
<circle cx="101.292" cy="528.123" r="4.29245" fill="white"/>
<circle cx="269.028" cy="528.123" r="4.29245" fill="white"/>
<circle cx="269.028" cy="300.292" r="4.29245" fill="white"/>
<circle cx="759.689" cy="955.387" r="4.29245" fill="white"/>
<circle cx="191.763" cy="685.292" r="4.29245" fill="white"/>
<circle cx="356.528" cy="728.547" r="2.64151" fill="white"/>
<circle cx="446.34" cy="723.264" r="2.64151" fill="white"/>
<circle cx="417.942" cy="636.755" r="2.64151" fill="white"/>
<circle cx="504.452" cy="862.604" r="2.64151" fill="white"/>
<circle cx="826.717" cy="666.472" r="2.64151" fill="white"/>
<circle cx="789.075" cy="833.547" r="2.64151" fill="white"/>
<circle cx="506.103" cy="693.877" r="4.29245" fill="white"/>
<circle cx="571.481" cy="789.632" r="4.29245" fill="white"/>
<circle cx="704.216" cy="720.292" r="4.29245" fill="white"/>
<circle cx="979.594" cy="737.462" r="4.29245" fill="white"/>
<circle cx="161.386" cy="855.67" r="4.29245" fill="white"/>
<circle cx="329.122" cy="855.67" r="4.29245" fill="white"/>
<circle cx="329.122" cy="627.84" r="4.29245" fill="white"/>
<circle cx="1050.92" cy="1061.71" r="4.29245" fill="white"/>
<circle cx="482.991" cy="791.613" r="4.29245" fill="white"/>
<circle cx="647.756" cy="834.868" r="2.64151" fill="white"/>
<circle cx="737.567" cy="829.585" r="2.64151" fill="white"/>
<circle cx="709.17" cy="743.075" r="2.64151" fill="white"/>
<circle cx="795.68" cy="968.924" r="2.64151" fill="white"/>
<circle cx="1117.94" cy="772.792" r="2.64151" fill="white"/>
<circle cx="1080.3" cy="939.868" r="2.64151" fill="white"/>
<circle cx="797.331" cy="800.198" r="4.29245" fill="white"/>
<circle cx="862.708" cy="895.953" r="4.29245" fill="white"/>
<circle cx="995.444" cy="826.613" r="4.29245" fill="white"/>
<circle cx="1270.82" cy="843.783" r="4.29245" fill="white"/>
<circle cx="452.614" cy="961.991" r="4.29245" fill="white"/>
<circle cx="620.349" cy="961.991" r="4.29245" fill="white"/>
<circle cx="620.349" cy="734.16" r="4.29245" fill="white"/>
<circle cx="1042.33" cy="798.217" r="4.29245" fill="white"/>
<circle cx="474.405" cy="528.123" r="4.29245" fill="white"/>
<circle cx="639.169" cy="571.377" r="2.64151" fill="white"/>
<circle cx="728.981" cy="566.094" r="2.64151" fill="white"/>
<circle cx="700.584" cy="479.585" r="2.64151" fill="white"/>
<circle cx="787.094" cy="705.434" r="2.64151" fill="white"/>
<circle cx="1109.36" cy="509.302" r="2.64151" fill="white"/>
<circle cx="1071.72" cy="676.377" r="2.64151" fill="white"/>
<circle cx="788.745" cy="536.708" r="4.29245" fill="white"/>
<circle cx="854.123" cy="632.462" r="4.29245" fill="white"/>
<circle cx="986.858" cy="563.123" r="4.29245" fill="white"/>
<circle cx="1262.24" cy="580.292" r="4.29245" fill="white"/>
<circle cx="444.028" cy="698.5" r="4.29245" fill="white"/>
<circle cx="611.763" cy="698.5" r="4.29245" fill="white"/>
<circle cx="611.763" cy="470.67" r="4.29245" fill="white"/>
<circle cx="741.274" cy="417.689" r="4.29245" fill="white"/>
<circle cx="173.348" cy="147.594" r="4.29245" fill="white"/>
<circle cx="338.112" cy="190.849" r="2.64151" fill="white"/>
<circle cx="427.924" cy="185.566" r="2.64151" fill="white"/>
<circle cx="399.528" cy="99.0566" r="2.64151" fill="white"/>
<circle cx="486.037" cy="324.906" r="2.64151" fill="white"/>
<circle cx="808.302" cy="128.774" r="2.64151" fill="white"/>
<circle cx="770.66" cy="295.849" r="2.64151" fill="white"/>
<circle cx="487.688" cy="156.179" r="4.29245" fill="white"/>
<circle cx="553.065" cy="251.934" r="4.29245" fill="white"/>
<circle cx="685.801" cy="182.594" r="4.29245" fill="white"/>
<circle cx="961.179" cy="199.764" r="4.29245" fill="white"/>
<circle cx="142.971" cy="317.972" r="4.29245" fill="white"/>
<circle cx="310.707" cy="317.972" r="4.29245" fill="white"/>
<circle cx="310.707" cy="90.1415" r="4.29245" fill="white"/>
<circle cx="741.274" cy="417.689" r="4.29245" fill="white"/>
<circle cx="34.6704" cy="61.7453" r="4.29245" fill="white"/>
<circle cx="199.434" cy="105" r="2.64151" fill="white"/>
<circle cx="289.246" cy="99.717" r="2.64151" fill="white"/>
<circle cx="260.85" cy="13.2075" r="2.64151" fill="white"/>
<circle cx="347.358" cy="239.057" r="2.64151" fill="white"/>
<circle cx="669.623" cy="42.9245" r="2.64151" fill="white"/>
<circle cx="631.981" cy="210" r="2.64151" fill="white"/>
<circle cx="349.009" cy="70.3302" r="4.29245" fill="white"/>
<circle cx="414.387" cy="166.085" r="4.29245" fill="white"/>
<circle cx="547.123" cy="96.7453" r="4.29245" fill="white"/>
<circle cx="822.5" cy="113.915" r="4.29245" fill="white"/>
<circle cx="4.29245" cy="232.123" r="4.29245" fill="white"/>
<circle cx="172.028" cy="232.123" r="4.29245" fill="white"/>
<circle cx="172.028" cy="4.29245" r="4.29245" fill="white"/>
<circle cx="662.689" cy="659.387" r="4.29245" fill="white"/>
<circle cx="94.7632" cy="389.292" r="4.29245" fill="white"/>
<circle cx="259.528" cy="432.547" r="2.64151" fill="white"/>
<circle cx="349.34" cy="427.264" r="2.64151" fill="white"/>
<circle cx="320.942" cy="340.755" r="2.64151" fill="white"/>
<circle cx="407.452" cy="566.604" r="2.64151" fill="white"/>
<circle cx="729.717" cy="370.472" r="2.64151" fill="white"/>
<circle cx="692.075" cy="537.547" r="2.64151" fill="white"/>
<circle cx="409.103" cy="397.877" r="4.29245" fill="white"/>
<circle cx="474.481" cy="493.632" r="4.29245" fill="white"/>
<circle cx="607.216" cy="424.292" r="4.29245" fill="white"/>
<circle cx="882.594" cy="441.462" r="4.29245" fill="white"/>
<circle cx="64.3862" cy="559.67" r="4.29245" fill="white"/>
<circle cx="232.122" cy="559.67" r="4.29245" fill="white"/>
<circle cx="232.122" cy="331.84" r="4.29245" fill="white"/>
<circle cx="953.916" cy="765.708" r="4.29245" fill="white"/>
<circle cx="385.991" cy="495.613" r="4.29245" fill="white"/>
<circle cx="550.756" cy="538.868" r="2.64151" fill="white"/>
<circle cx="640.567" cy="533.585" r="2.64151" fill="white"/>
<circle cx="612.17" cy="447.075" r="2.64151" fill="white"/>
<circle cx="698.68" cy="672.924" r="2.64151" fill="white"/>
<circle cx="1020.94" cy="476.792" r="2.64151" fill="white"/>
<circle cx="983.303" cy="643.868" r="2.64151" fill="white"/>
<circle cx="700.331" cy="504.198" r="4.29245" fill="white"/>
<circle cx="765.708" cy="599.953" r="4.29245" fill="white"/>
<circle cx="898.444" cy="530.613" r="4.29245" fill="white"/>
<circle cx="1173.82" cy="547.783" r="4.29245" fill="white"/>
<circle cx="355.614" cy="665.991" r="4.29245" fill="white"/>
<circle cx="523.349" cy="665.991" r="4.29245" fill="white"/>
<circle cx="523.349" cy="438.16" r="4.29245" fill="white"/>
<circle cx="945.331" cy="502.217" r="4.29245" fill="white"/>
<circle cx="377.405" cy="232.123" r="4.29245" fill="white"/>
<circle cx="542.169" cy="275.377" r="2.64151" fill="white"/>
<circle cx="631.981" cy="270.094" r="2.64151" fill="white"/>
<circle cx="603.584" cy="183.585" r="2.64151" fill="white"/>
<circle cx="690.094" cy="409.434" r="2.64151" fill="white"/>
<circle cx="1012.36" cy="213.302" r="2.64151" fill="white"/>
<circle cx="974.717" cy="380.377" r="2.64151" fill="white"/>
<circle cx="691.745" cy="240.708" r="4.29245" fill="white"/>
<circle cx="757.123" cy="336.462" r="4.29245" fill="white"/>
<circle cx="889.858" cy="267.123" r="4.29245" fill="white"/>
<circle cx="1165.24" cy="284.292" r="4.29245" fill="white"/>
<circle cx="347.028" cy="402.5" r="4.29245" fill="white"/>
<circle cx="514.763" cy="402.5" r="4.29245" fill="white"/>
<circle cx="514.763" cy="174.67" r="4.29245" fill="white"/>
<circle cx="1455.27" cy="726.689" r="4.29245" fill="white"/>
<circle cx="887.348" cy="456.594" r="4.29245" fill="white"/>
<circle cx="1052.11" cy="499.849" r="2.64151" fill="white"/>
<circle cx="1141.92" cy="494.566" r="2.64151" fill="white"/>
<circle cx="1113.53" cy="408.057" r="2.64151" fill="white"/>
<circle cx="1200.04" cy="633.906" r="2.64151" fill="white"/>
<circle cx="1522.3" cy="437.774" r="2.64151" fill="white"/>
<circle cx="1484.66" cy="604.849" r="2.64151" fill="white"/>
<circle cx="1201.69" cy="465.179" r="4.29245" fill="white"/>
<circle cx="1267.06" cy="560.934" r="4.29245" fill="white"/>
<circle cx="1399.8" cy="491.594" r="4.29245" fill="white"/>
<circle cx="1675.18" cy="508.764" r="4.29245" fill="white"/>
<circle cx="856.971" cy="626.972" r="4.29245" fill="white"/>
<circle cx="1024.71" cy="626.972" r="4.29245" fill="white"/>
<circle cx="1024.71" cy="399.142" r="4.29245" fill="white"/>
<circle cx="1455.27" cy="726.689" r="4.29245" fill="white"/>
<circle cx="748.67" cy="370.745" r="4.29245" fill="white"/>
<circle cx="913.434" cy="414" r="2.64151" fill="white"/>
<circle cx="1003.25" cy="408.717" r="2.64151" fill="white"/>
<circle cx="974.849" cy="322.208" r="2.64151" fill="white"/>
<circle cx="1061.36" cy="548.057" r="2.64151" fill="white"/>
<circle cx="1383.62" cy="351.925" r="2.64151" fill="white"/>
<circle cx="1345.98" cy="519" r="2.64151" fill="white"/>
<circle cx="1063.01" cy="379.33" r="4.29245" fill="white"/>
<circle cx="1128.39" cy="475.085" r="4.29245" fill="white"/>
<circle cx="1261.12" cy="405.745" r="4.29245" fill="white"/>
<circle cx="1536.5" cy="422.915" r="4.29245" fill="white"/>
<circle cx="718.292" cy="541.123" r="4.29245" fill="white"/>
<circle cx="886.028" cy="541.123" r="4.29245" fill="white"/>
<circle cx="886.028" cy="313.292" r="4.29245" fill="white"/>
<circle cx="1376.69" cy="968.387" r="4.29245" fill="white"/>
<circle cx="808.763" cy="698.292" r="4.29245" fill="white"/>
<circle cx="973.528" cy="741.547" r="2.64151" fill="white"/>
<circle cx="1063.34" cy="736.264" r="2.64151" fill="white"/>
<circle cx="1034.94" cy="649.755" r="2.64151" fill="white"/>
<circle cx="1121.45" cy="875.604" r="2.64151" fill="white"/>
<circle cx="1443.72" cy="679.472" r="2.64151" fill="white"/>
<circle cx="1406.08" cy="846.547" r="2.64151" fill="white"/>
<circle cx="1123.1" cy="706.877" r="4.29245" fill="white"/>
<circle cx="1188.48" cy="802.632" r="4.29245" fill="white"/>
<circle cx="1321.22" cy="733.292" r="4.29245" fill="white"/>
<circle cx="1596.59" cy="750.462" r="4.29245" fill="white"/>
<circle cx="778.386" cy="868.67" r="4.29245" fill="white"/>
<circle cx="946.122" cy="868.67" r="4.29245" fill="white"/>
<circle cx="946.122" cy="640.84" r="4.29245" fill="white"/>
<circle cx="1667.92" cy="1074.71" r="4.29245" fill="white"/>
<circle cx="1099.99" cy="804.613" r="4.29245" fill="white"/>
<circle cx="1264.76" cy="847.868" r="2.64151" fill="white"/>
<circle cx="1354.57" cy="842.585" r="2.64151" fill="white"/>
<circle cx="1326.17" cy="756.075" r="2.64151" fill="white"/>
<circle cx="1412.68" cy="981.924" r="2.64151" fill="white"/>
<circle cx="1734.94" cy="785.792" r="2.64151" fill="white"/>
<circle cx="1697.3" cy="952.868" r="2.64151" fill="white"/>
<circle cx="1414.33" cy="813.198" r="4.29245" fill="white"/>
<circle cx="1479.71" cy="908.953" r="4.29245" fill="white"/>
<circle cx="1612.44" cy="839.613" r="4.29245" fill="white"/>
<circle cx="1887.82" cy="856.783" r="4.29245" fill="white"/>
<circle cx="1069.61" cy="974.991" r="4.29245" fill="white"/>
<circle cx="1237.35" cy="974.991" r="4.29245" fill="white"/>
<circle cx="1237.35" cy="747.16" r="4.29245" fill="white"/>
<circle cx="1659.33" cy="811.217" r="4.29245" fill="white"/>
<circle cx="1091.4" cy="541.123" r="4.29245" fill="white"/>
<circle cx="1256.17" cy="584.377" r="2.64151" fill="white"/>
<circle cx="1345.98" cy="579.094" r="2.64151" fill="white"/>
<circle cx="1317.58" cy="492.585" r="2.64151" fill="white"/>
<circle cx="1404.09" cy="718.434" r="2.64151" fill="white"/>
<circle cx="1726.36" cy="522.302" r="2.64151" fill="white"/>
<circle cx="1688.72" cy="689.377" r="2.64151" fill="white"/>
<circle cx="1405.74" cy="549.708" r="4.29245" fill="white"/>
<circle cx="1471.12" cy="645.462" r="4.29245" fill="white"/>
<circle cx="1603.86" cy="576.123" r="4.29245" fill="white"/>
<circle cx="1879.24" cy="593.292" r="4.29245" fill="white"/>
<circle cx="1061.03" cy="711.5" r="4.29245" fill="white"/>
<circle cx="1228.76" cy="711.5" r="4.29245" fill="white"/>
<circle cx="1228.76" cy="483.67" r="4.29245" fill="white"/>
</svg>
