<svg width="1481" height="998" viewBox="0 0 1481 998" fill="none" xmlns="http://www.w3.org/2000/svg">
<circle cx="1043.27" cy="417.689" r="4.29245" fill="white"/>
<circle cx="475.348" cy="147.594" r="4.29245" fill="white"/>
<circle cx="640.112" cy="190.849" r="2.64151" fill="white"/>
<circle cx="729.924" cy="185.566" r="2.64151" fill="white"/>
<circle cx="701.527" cy="99.0566" r="2.64151" fill="white"/>
<circle cx="788.037" cy="324.906" r="2.64151" fill="white"/>
<circle cx="1110.3" cy="128.774" r="2.64151" fill="white"/>
<circle cx="1072.66" cy="295.849" r="2.64151" fill="white"/>
<circle cx="789.688" cy="156.179" r="4.29245" fill="white"/>
<circle cx="855.065" cy="251.934" r="4.29245" fill="white"/>
<circle cx="987.801" cy="182.594" r="4.29245" fill="white"/>
<circle cx="1263.18" cy="199.764" r="4.29245" fill="white"/>
<circle cx="444.971" cy="317.972" r="4.29245" fill="white"/>
<circle cx="612.707" cy="317.972" r="4.29245" fill="white"/>
<circle cx="612.707" cy="90.1415" r="4.29245" fill="white"/>
<circle cx="1043.27" cy="417.689" r="4.29245" fill="white"/>
<circle cx="336.67" cy="61.7453" r="4.29245" fill="white"/>
<circle cx="501.434" cy="105" r="2.64151" fill="white"/>
<circle cx="591.246" cy="99.717" r="2.64151" fill="white"/>
<circle cx="562.849" cy="13.2075" r="2.64151" fill="white"/>
<circle cx="649.358" cy="239.057" r="2.64151" fill="white"/>
<circle cx="971.623" cy="42.9245" r="2.64151" fill="white"/>
<circle cx="933.981" cy="210" r="2.64151" fill="white"/>
<circle cx="651.009" cy="70.3302" r="4.29245" fill="white"/>
<circle cx="716.387" cy="166.085" r="4.29245" fill="white"/>
<circle cx="849.123" cy="96.7453" r="4.29245" fill="white"/>
<circle cx="1124.5" cy="113.915" r="4.29245" fill="white"/>
<circle cx="306.292" cy="232.123" r="4.29245" fill="white"/>
<circle cx="474.028" cy="232.123" r="4.29245" fill="white"/>
<circle cx="474.028" cy="4.29245" r="4.29245" fill="white"/>
<circle cx="964.689" cy="659.387" r="4.29245" fill="white"/>
<circle cx="396.763" cy="389.292" r="4.29245" fill="white"/>
<circle cx="561.528" cy="432.547" r="2.64151" fill="white"/>
<circle cx="651.34" cy="427.264" r="2.64151" fill="white"/>
<circle cx="622.942" cy="340.755" r="2.64151" fill="white"/>
<circle cx="709.452" cy="566.604" r="2.64151" fill="white"/>
<circle cx="1031.72" cy="370.472" r="2.64151" fill="white"/>
<circle cx="994.075" cy="537.547" r="2.64151" fill="white"/>
<circle cx="711.103" cy="397.877" r="4.29245" fill="white"/>
<circle cx="776.481" cy="493.632" r="4.29245" fill="white"/>
<circle cx="909.216" cy="424.292" r="4.29245" fill="white"/>
<circle cx="1184.59" cy="441.462" r="4.29245" fill="white"/>
<circle cx="366.386" cy="559.67" r="4.29245" fill="white"/>
<circle cx="534.122" cy="559.67" r="4.29245" fill="white"/>
<circle cx="534.122" cy="331.84" r="4.29245" fill="white"/>
<circle cx="1255.92" cy="765.708" r="4.29245" fill="white"/>
<circle cx="687.991" cy="495.613" r="4.29245" fill="white"/>
<circle cx="852.756" cy="538.868" r="2.64151" fill="white"/>
<circle cx="942.567" cy="533.585" r="2.64151" fill="white"/>
<circle cx="914.17" cy="447.075" r="2.64151" fill="white"/>
<circle cx="1000.68" cy="672.924" r="2.64151" fill="white"/>
<circle cx="1322.94" cy="476.792" r="2.64151" fill="white"/>
<circle cx="1285.3" cy="643.868" r="2.64151" fill="white"/>
<circle cx="1002.33" cy="504.198" r="4.29245" fill="white"/>
<circle cx="1067.71" cy="599.953" r="4.29245" fill="white"/>
<circle cx="1200.44" cy="530.613" r="4.29245" fill="white"/>
<circle cx="1475.82" cy="547.783" r="4.29245" fill="white"/>
<circle cx="657.614" cy="665.991" r="4.29245" fill="white"/>
<circle cx="825.349" cy="665.991" r="4.29245" fill="white"/>
<circle cx="825.349" cy="438.16" r="4.29245" fill="white"/>
<circle cx="1247.33" cy="502.217" r="4.29245" fill="white"/>
<circle cx="679.405" cy="232.123" r="4.29245" fill="white"/>
<circle cx="844.169" cy="275.377" r="2.64151" fill="white"/>
<circle cx="933.981" cy="270.094" r="2.64151" fill="white"/>
<circle cx="905.584" cy="183.585" r="2.64151" fill="white"/>
<circle cx="992.094" cy="409.434" r="2.64151" fill="white"/>
<circle cx="1314.36" cy="213.302" r="2.64151" fill="white"/>
<circle cx="1276.72" cy="380.377" r="2.64151" fill="white"/>
<circle cx="993.745" cy="240.708" r="4.29245" fill="white"/>
<circle cx="1059.12" cy="336.462" r="4.29245" fill="white"/>
<circle cx="1191.86" cy="267.123" r="4.29245" fill="white"/>
<circle cx="1467.24" cy="284.292" r="4.29245" fill="white"/>
<circle cx="649.028" cy="402.5" r="4.29245" fill="white"/>
<circle cx="816.763" cy="402.5" r="4.29245" fill="white"/>
<circle cx="816.763" cy="174.67" r="4.29245" fill="white"/>
<circle cx="741.274" cy="645.689" r="4.29245" fill="white"/>
<circle cx="173.348" cy="375.594" r="4.29245" fill="white"/>
<circle cx="338.113" cy="418.849" r="2.64151" fill="white"/>
<circle cx="427.924" cy="413.566" r="2.64151" fill="white"/>
<circle cx="399.528" cy="327.057" r="2.64151" fill="white"/>
<circle cx="486.037" cy="552.906" r="2.64151" fill="white"/>
<circle cx="808.302" cy="356.774" r="2.64151" fill="white"/>
<circle cx="770.66" cy="523.849" r="2.64151" fill="white"/>
<circle cx="487.688" cy="384.179" r="4.29245" fill="white"/>
<circle cx="553.066" cy="479.934" r="4.29245" fill="white"/>
<circle cx="685.801" cy="410.594" r="4.29245" fill="white"/>
<circle cx="961.179" cy="427.764" r="4.29245" fill="white"/>
<circle cx="142.971" cy="545.972" r="4.29245" fill="white"/>
<circle cx="310.707" cy="545.972" r="4.29245" fill="white"/>
<circle cx="310.707" cy="318.142" r="4.29245" fill="white"/>
<circle cx="741.274" cy="645.689" r="4.29245" fill="white"/>
<circle cx="34.6704" cy="289.745" r="4.29245" fill="white"/>
<circle cx="199.434" cy="333" r="2.64151" fill="white"/>
<circle cx="289.246" cy="327.717" r="2.64151" fill="white"/>
<circle cx="260.85" cy="241.208" r="2.64151" fill="white"/>
<circle cx="347.358" cy="467.057" r="2.64151" fill="white"/>
<circle cx="669.623" cy="270.925" r="2.64151" fill="white"/>
<circle cx="631.981" cy="438" r="2.64151" fill="white"/>
<circle cx="349.009" cy="298.33" r="4.29245" fill="white"/>
<circle cx="414.387" cy="394.085" r="4.29245" fill="white"/>
<circle cx="547.123" cy="324.745" r="4.29245" fill="white"/>
<circle cx="822.5" cy="341.915" r="4.29245" fill="white"/>
<circle cx="4.29245" cy="460.123" r="4.29245" fill="white"/>
<circle cx="172.028" cy="460.123" r="4.29245" fill="white"/>
<circle cx="172.028" cy="232.292" r="4.29245" fill="white"/>
<circle cx="662.689" cy="887.387" r="4.29245" fill="white"/>
<circle cx="94.7632" cy="617.292" r="4.29245" fill="white"/>
<circle cx="259.528" cy="660.547" r="2.64151" fill="white"/>
<circle cx="349.34" cy="655.264" r="2.64151" fill="white"/>
<circle cx="320.942" cy="568.755" r="2.64151" fill="white"/>
<circle cx="407.452" cy="794.604" r="2.64151" fill="white"/>
<circle cx="729.717" cy="598.472" r="2.64151" fill="white"/>
<circle cx="692.075" cy="765.547" r="2.64151" fill="white"/>
<circle cx="409.103" cy="625.877" r="4.29245" fill="white"/>
<circle cx="474.481" cy="721.632" r="4.29245" fill="white"/>
<circle cx="607.216" cy="652.292" r="4.29245" fill="white"/>
<circle cx="882.594" cy="669.462" r="4.29245" fill="white"/>
<circle cx="64.3862" cy="787.67" r="4.29245" fill="white"/>
<circle cx="232.122" cy="787.67" r="4.29245" fill="white"/>
<circle cx="232.122" cy="559.84" r="4.29245" fill="white"/>
<circle cx="953.916" cy="993.708" r="4.29245" fill="white"/>
<circle cx="385.991" cy="723.613" r="4.29245" fill="white"/>
<circle cx="550.756" cy="766.868" r="2.64151" fill="white"/>
<circle cx="640.567" cy="761.585" r="2.64151" fill="white"/>
<circle cx="612.17" cy="675.075" r="2.64151" fill="white"/>
<circle cx="698.68" cy="900.924" r="2.64151" fill="white"/>
<circle cx="1020.94" cy="704.792" r="2.64151" fill="white"/>
<circle cx="983.303" cy="871.868" r="2.64151" fill="white"/>
<circle cx="700.331" cy="732.198" r="4.29245" fill="white"/>
<circle cx="765.708" cy="827.953" r="4.29245" fill="white"/>
<circle cx="898.444" cy="758.613" r="4.29245" fill="white"/>
<circle cx="1173.82" cy="775.783" r="4.29245" fill="white"/>
<circle cx="355.614" cy="893.991" r="4.29245" fill="white"/>
<circle cx="523.349" cy="893.991" r="4.29245" fill="white"/>
<circle cx="523.349" cy="666.16" r="4.29245" fill="white"/>
<circle cx="945.331" cy="730.217" r="4.29245" fill="white"/>
<circle cx="377.405" cy="460.123" r="4.29245" fill="white"/>
<circle cx="542.169" cy="503.377" r="2.64151" fill="white"/>
<circle cx="631.981" cy="498.094" r="2.64151" fill="white"/>
<circle cx="603.584" cy="411.585" r="2.64151" fill="white"/>
<circle cx="690.094" cy="637.434" r="2.64151" fill="white"/>
<circle cx="1012.36" cy="441.302" r="2.64151" fill="white"/>
<circle cx="974.717" cy="608.377" r="2.64151" fill="white"/>
<circle cx="691.745" cy="468.708" r="4.29245" fill="white"/>
<circle cx="757.123" cy="564.462" r="4.29245" fill="white"/>
<circle cx="889.858" cy="495.123" r="4.29245" fill="white"/>
<circle cx="1165.24" cy="512.292" r="4.29245" fill="white"/>
<circle cx="347.028" cy="630.5" r="4.29245" fill="white"/>
<circle cx="514.763" cy="630.5" r="4.29245" fill="white"/>
<circle cx="514.763" cy="402.67" r="4.29245" fill="white"/>
</svg>
