<svg width="643" height="853" viewBox="0 0 643 853" fill="none" xmlns="http://www.w3.org/2000/svg">
<rect x="167" width="293" height="805" fill="black"/>
<path d="M637.5 51.5H453.5L455 199C455 136 576.167 75.1667 637.5 51.5Z" fill="black"/>
<path d="M638 291H454L455.5 438.5C455.5 375.5 576.667 314.667 638 291Z" fill="black"/>
<path d="M8 291H173L171.655 434C171.655 372.922 63 313.945 8 291Z" fill="black"/>
<path d="M8 66H173L171.655 209C171.655 147.922 63 88.9446 8 66Z" fill="black"/>
<path d="M0 552H169L167.622 695C167.622 633.922 56.3333 574.945 0 552Z" fill="black"/>
<path d="M643 552H459L460.5 699.5C460.5 636.5 581.667 575.667 643 552Z" fill="black"/>
<path d="M287 901V797.5H337V901H287Z" fill="black"/>
</svg>
